<svg id="svg" version="1.1" xmlns="http://www.w3.org/2000/svg" xmlns:xlink="http://www.w3.org/1999/xlink" width="400" height="148.8" viewBox="0, 0, 400,148.8"><g id="svgg"><path id="path0" d="M341.783 16.907 C 341.624 17.066,341.229 17.167,340.762 17.167 C 340.343 17.167,340.000 17.242,340.000 17.333 C 340.000 17.425,339.735 17.500,339.411 17.500 C 339.042 17.500,338.787 17.593,338.727 17.750 C 338.668 17.904,338.414 18.000,338.066 18.000 C 337.754 18.000,337.500 18.075,337.500 18.167 C 337.500 18.258,337.313 18.333,337.083 18.333 C 336.854 18.333,336.667 18.408,336.667 18.500 C 336.667 18.592,336.517 18.667,336.333 18.667 C 336.148 18.667,336.000 18.778,336.000 18.917 C 336.000 19.072,335.843 19.167,335.583 19.167 C 335.354 19.167,335.167 19.242,335.167 19.333 C 335.167 19.425,335.054 19.500,334.917 19.500 C 334.779 19.500,334.667 19.612,334.667 19.750 C 334.667 19.889,334.519 20.000,334.333 20.000 C 334.150 20.000,334.000 20.075,334.000 20.167 C 334.000 20.258,333.887 20.333,333.750 20.333 C 333.612 20.333,333.500 20.408,333.500 20.500 C 333.500 20.592,333.350 20.667,333.167 20.667 C 332.983 20.667,332.833 20.747,332.833 20.845 C 332.833 21.076,332.409 21.500,332.179 21.500 C 332.080 21.500,332.000 21.613,332.000 21.750 C 332.000 21.887,331.904 22.000,331.787 22.000 C 331.670 22.000,331.465 22.150,331.333 22.333 C 331.201 22.517,330.999 22.667,330.885 22.667 C 330.769 22.667,330.719 22.777,330.773 22.917 C 330.826 23.054,330.781 23.167,330.673 23.167 C 330.363 23.167,330.000 23.610,330.000 23.988 C 330.000 24.178,329.920 24.333,329.821 24.333 C 329.591 24.333,329.167 24.757,329.167 24.988 C 329.167 25.086,329.093 25.167,329.003 25.167 C 328.913 25.167,328.793 25.354,328.735 25.583 C 328.678 25.813,328.564 26.000,328.482 26.000 C 328.400 26.000,328.333 26.150,328.333 26.333 C 328.333 26.517,328.258 26.667,328.167 26.667 C 328.075 26.667,328.000 26.854,328.000 27.083 C 328.000 27.343,327.906 27.500,327.750 27.500 C 327.594 27.500,327.500 27.657,327.500 27.917 C 327.500 28.146,327.425 28.333,327.333 28.333 C 327.242 28.333,327.167 28.521,327.167 28.750 C 327.167 29.009,327.072 29.167,326.917 29.167 C 326.742 29.167,326.667 29.343,326.667 29.750 C 326.667 30.071,326.592 30.333,326.500 30.333 C 326.408 30.333,326.333 30.708,326.333 31.167 C 326.333 31.625,326.258 32.000,326.167 32.000 C 326.070 32.000,326.000 32.534,326.000 33.268 C 326.000 34.282,325.954 34.518,325.768 34.447 C 325.579 34.374,325.531 34.723,325.511 36.346 C 325.489 38.039,325.523 38.333,325.742 38.333 C 325.955 38.333,326.000 38.583,326.000 39.750 C 326.000 40.583,326.069 41.167,326.167 41.167 C 326.258 41.167,326.333 41.542,326.333 42.000 C 326.333 42.458,326.408 42.833,326.500 42.833 C 326.592 42.833,326.667 43.096,326.667 43.417 C 326.667 43.824,326.742 44.000,326.917 44.000 C 327.091 44.000,327.167 44.176,327.167 44.583 C 327.167 44.904,327.234 45.167,327.315 45.167 C 327.397 45.167,327.511 45.354,327.568 45.583 C 327.626 45.813,327.747 46.000,327.837 46.000 C 327.926 46.000,328.000 46.150,328.000 46.333 C 328.000 46.517,328.075 46.667,328.167 46.667 C 328.258 46.667,328.333 46.773,328.333 46.903 C 328.333 47.033,328.412 47.165,328.507 47.197 C 328.603 47.229,328.693 47.414,328.708 47.609 C 328.723 47.804,328.813 47.933,328.909 47.896 C 329.005 47.860,329.184 48.055,329.306 48.331 C 329.428 48.607,329.602 48.833,329.693 48.833 C 329.876 48.833,330.333 49.250,330.333 49.417 C 330.333 49.590,330.794 50.000,330.988 50.000 C 331.086 50.000,331.167 50.080,331.167 50.179 C 331.167 50.409,331.591 50.833,331.821 50.833 C 331.920 50.833,332.000 50.908,332.000 51.000 C 332.000 51.092,332.104 51.167,332.232 51.167 C 332.360 51.167,332.508 51.279,332.560 51.417 C 332.613 51.554,332.771 51.667,332.911 51.667 C 333.052 51.667,333.167 51.742,333.167 51.833 C 333.167 51.925,333.247 52.000,333.345 52.000 C 333.443 52.000,333.628 52.094,333.756 52.208 C 334.349 52.740,334.509 52.833,334.826 52.833 C 335.014 52.833,335.167 52.908,335.167 53.000 C 335.167 53.092,335.322 53.167,335.512 53.167 C 335.702 53.167,335.970 53.279,336.107 53.417 C 336.245 53.554,336.539 53.667,336.762 53.667 C 336.985 53.667,337.167 53.742,337.167 53.833 C 337.167 53.925,337.496 54.000,337.899 54.000 C 338.396 54.000,338.662 54.080,338.727 54.250 C 338.798 54.434,339.088 54.500,339.828 54.500 C 340.387 54.500,340.833 54.574,340.833 54.667 C 340.833 54.769,341.667 54.833,343.000 54.833 L 345.167 54.833 345.167 61.000 C 345.167 65.274,345.221 67.167,345.345 67.167 C 345.576 67.167,346.000 66.743,346.000 66.512 C 346.000 66.414,346.079 66.333,346.175 66.333 C 346.402 66.333,348.000 64.735,348.000 64.508 C 348.000 64.412,348.188 64.333,348.417 64.333 C 348.646 64.333,348.833 64.258,348.833 64.167 C 348.833 64.075,348.950 64.000,349.093 64.000 C 349.236 64.000,349.307 63.925,349.250 63.833 C 349.193 63.742,349.226 63.667,349.323 63.667 C 349.421 63.667,349.500 63.554,349.500 63.417 C 349.500 63.279,349.580 63.167,349.679 63.167 C 349.909 63.167,350.333 62.743,350.333 62.512 C 350.333 62.414,350.418 62.333,350.522 62.333 C 350.759 62.333,352.333 60.748,352.333 60.509 C 352.333 60.413,352.446 60.333,352.583 60.333 C 352.721 60.333,352.833 60.258,352.833 60.167 C 352.833 60.075,352.950 60.000,353.093 60.000 C 353.236 60.000,353.307 59.925,353.250 59.833 C 353.193 59.742,353.226 59.667,353.323 59.667 C 353.421 59.667,353.500 59.554,353.500 59.417 C 353.500 59.279,353.613 59.167,353.750 59.167 C 353.906 59.167,354.000 59.009,354.000 58.750 C 354.000 58.521,354.079 58.333,354.175 58.333 C 354.402 58.333,356.000 56.735,356.000 56.508 C 356.000 56.412,356.085 56.333,356.190 56.333 C 356.446 56.333,356.821 55.819,356.828 55.458 C 356.831 55.298,356.914 55.167,357.012 55.167 C 357.243 55.167,357.667 54.743,357.667 54.512 C 357.667 54.414,357.742 54.333,357.833 54.333 C 357.925 54.333,358.000 54.213,358.000 54.066 C 358.000 53.915,358.094 53.834,358.216 53.881 C 358.344 53.930,358.442 53.829,358.457 53.634 C 358.470 53.453,358.673 53.140,358.907 52.939 C 359.142 52.737,359.333 52.460,359.333 52.323 C 359.333 52.186,359.483 51.965,359.667 51.833 C 359.850 51.701,360.000 51.422,360.000 51.213 C 360.000 50.987,360.101 50.833,360.250 50.833 C 360.387 50.833,360.500 50.721,360.500 50.583 C 360.500 50.446,360.575 50.333,360.667 50.333 C 360.758 50.333,360.833 50.191,360.833 50.018 C 360.833 49.844,360.946 49.659,361.083 49.606 C 361.221 49.554,361.333 49.358,361.333 49.172 C 361.333 48.986,361.408 48.833,361.500 48.833 C 361.592 48.833,361.667 48.646,361.667 48.417 C 361.667 48.188,361.742 48.000,361.833 48.000 C 361.925 48.000,362.000 47.813,362.000 47.583 C 362.000 47.324,362.094 47.167,362.250 47.167 C 362.389 47.167,362.500 47.019,362.500 46.833 C 362.500 46.650,362.575 46.500,362.667 46.500 C 362.758 46.500,362.833 46.307,362.833 46.071 C 362.833 45.836,362.946 45.530,363.083 45.393 C 363.221 45.255,363.333 45.003,363.333 44.831 C 363.333 44.660,363.408 44.473,363.500 44.417 C 363.592 44.360,363.667 44.056,363.667 43.740 C 363.667 43.425,363.742 43.167,363.833 43.167 C 363.926 43.167,364.000 42.722,364.000 42.167 C 364.000 41.377,364.054 41.167,364.257 41.167 C 364.483 41.167,364.511 40.646,364.492 36.928 C 364.473 33.359,364.432 32.703,364.235 32.779 C 364.052 32.849,364.000 32.681,364.000 32.018 C 364.000 31.550,363.925 31.167,363.833 31.167 C 363.742 31.167,363.667 30.910,363.667 30.597 C 363.667 30.284,363.593 30.003,363.503 29.972 C 363.413 29.942,363.319 29.636,363.295 29.292 C 363.269 28.927,363.163 28.667,363.042 28.667 C 362.927 28.667,362.833 28.475,362.833 28.240 C 362.833 27.998,362.761 27.858,362.667 27.917 C 362.572 27.975,362.500 27.835,362.500 27.593 C 362.500 27.325,362.407 27.167,362.250 27.167 C 362.094 27.167,362.000 27.009,362.000 26.750 C 362.000 26.521,361.925 26.333,361.833 26.333 C 361.742 26.333,361.664 26.202,361.661 26.042 C 361.655 25.681,361.279 25.167,361.023 25.167 C 360.919 25.167,360.833 25.011,360.833 24.821 C 360.833 24.452,360.473 24.000,360.179 24.000 C 360.080 24.000,360.000 23.887,360.000 23.750 C 360.000 23.613,359.926 23.500,359.837 23.500 C 359.747 23.500,359.626 23.313,359.568 23.083 C 359.511 22.854,359.393 22.667,359.305 22.667 C 359.218 22.667,359.193 22.592,359.250 22.500 C 359.307 22.408,359.236 22.333,359.093 22.333 C 358.950 22.333,358.833 22.258,358.833 22.167 C 358.833 22.075,358.721 22.000,358.583 22.000 C 358.446 22.000,358.333 21.920,358.333 21.821 C 358.333 21.556,357.895 21.167,357.595 21.167 C 357.451 21.167,357.333 21.054,357.333 20.917 C 357.333 20.779,357.221 20.667,357.083 20.667 C 356.946 20.667,356.833 20.592,356.833 20.500 C 356.833 20.408,356.721 20.333,356.583 20.333 C 356.446 20.333,356.333 20.258,356.333 20.167 C 356.333 20.075,356.183 20.000,356.000 20.000 C 355.815 20.000,355.667 19.889,355.667 19.750 C 355.667 19.612,355.554 19.500,355.417 19.500 C 355.279 19.500,355.167 19.425,355.167 19.333 C 355.167 19.242,355.017 19.167,354.833 19.167 C 354.648 19.167,354.500 19.056,354.500 18.917 C 354.500 18.761,354.343 18.667,354.083 18.667 C 353.854 18.667,353.667 18.592,353.667 18.500 C 353.667 18.408,353.479 18.333,353.250 18.333 C 353.021 18.333,352.833 18.258,352.833 18.167 C 352.833 18.075,352.571 18.000,352.250 18.000 C 351.843 18.000,351.667 17.925,351.667 17.750 C 351.667 17.575,351.491 17.500,351.083 17.500 C 350.762 17.500,350.500 17.425,350.500 17.333 C 350.500 17.242,350.131 17.167,349.681 17.167 C 349.173 17.167,348.835 17.087,348.792 16.958 C 348.677 16.612,342.126 16.564,341.783 16.907 " stroke="none" fill="#8cc43c" fill-rule="evenodd"></path><path id="path1" d="M101.126 52.375 C 101.085 64.696,101.074 65.064,100.787 64.464 C 100.304 63.457,97.819 61.167,97.210 61.167 C 97.129 61.167,96.730 61.000,96.323 60.797 C 94.521 59.896,89.658 60.294,87.002 61.560 C 84.239 62.878,81.320 66.004,79.743 69.333 C 75.623 78.032,75.074 91.667,78.429 101.934 C 79.065 103.881,80.457 106.808,81.068 107.483 C 81.214 107.644,81.333 107.826,81.333 107.886 C 81.333 108.541,84.610 111.530,86.250 112.371 C 88.607 113.581,93.445 114.103,95.333 113.351 C 96.561 112.862,98.667 111.785,98.667 111.646 C 98.667 111.566,98.770 111.500,98.897 111.500 C 99.166 111.500,101.997 108.709,102.006 108.435 C 102.012 108.226,102.647 107.418,102.727 107.518 C 102.836 107.655,103.337 111.451,103.335 112.125 L 103.333 112.833 109.341 112.833 L 115.348 112.833 115.260 109.792 C 115.212 108.119,115.129 91.656,115.076 73.208 L 114.980 39.667 108.074 39.667 L 101.169 39.667 101.126 52.375 M51.250 60.490 C 50.700 60.563,49.913 60.744,49.500 60.892 C 49.087 61.041,48.658 61.163,48.545 61.164 C 48.257 61.168,45.553 62.465,44.750 62.985 C 41.165 65.307,38.510 68.680,36.475 73.500 C 33.940 79.504,33.209 91.003,34.960 97.333 C 35.100 97.837,35.271 98.513,35.340 98.833 C 35.608 100.070,36.692 102.595,37.763 104.480 C 38.767 106.247,42.444 110.167,43.098 110.167 C 43.167 110.167,43.343 110.275,43.489 110.406 C 47.266 113.824,58.987 114.492,67.833 111.793 C 69.667 111.233,69.617 111.393,68.989 108.167 C 68.801 107.204,68.506 105.667,68.333 104.750 C 68.159 103.833,67.928 102.615,67.819 102.042 C 67.597 100.875,67.609 100.882,66.531 101.311 C 64.493 102.121,58.811 102.979,57.014 102.747 C 50.904 101.960,47.707 98.825,47.369 93.292 L 47.291 92.000 59.288 92.000 L 71.285 92.000 71.476 90.115 C 72.009 84.855,71.507 77.696,70.321 73.655 C 70.145 73.053,70.000 72.470,70.000 72.361 C 70.000 72.252,69.860 71.845,69.688 71.457 C 69.517 71.068,69.169 70.262,68.917 69.667 C 68.664 69.071,68.370 68.471,68.263 68.333 C 68.156 68.196,67.967 67.879,67.842 67.630 C 66.959 65.863,63.946 62.955,62.000 61.991 C 59.083 60.546,55.056 59.984,51.250 60.490 M190.556 60.498 C 189.991 60.578,189.301 60.761,189.023 60.905 C 188.744 61.049,188.412 61.167,188.285 61.167 C 188.086 61.167,186.578 61.894,185.692 62.417 C 184.501 63.120,182.581 64.860,181.737 66.000 C 181.469 66.363,181.206 66.661,181.152 66.663 C 181.026 66.668,180.667 63.768,180.664 62.718 C 180.663 62.277,180.617 61.748,180.562 61.542 L 180.461 61.167 174.522 61.167 L 168.583 61.166 168.625 63.625 C 168.648 64.977,168.742 68.783,168.834 72.083 C 168.925 75.383,169.000 85.902,169.000 95.458 L 169.000 112.833 175.828 112.833 L 182.656 112.833 182.705 96.042 L 182.755 79.250 183.191 77.750 C 183.431 76.925,183.732 75.987,183.859 75.667 C 185.503 71.514,190.380 70.898,192.182 74.616 C 193.255 76.830,193.220 76.166,193.286 95.375 L 193.346 112.833 200.173 112.833 L 207.000 112.833 206.995 94.792 C 206.989 73.740,206.982 73.624,205.628 69.250 C 205.235 67.981,203.946 65.362,203.568 65.065 C 203.439 64.963,203.333 64.820,203.333 64.748 C 203.333 64.542,201.274 62.507,201.062 62.503 C 200.959 62.501,200.785 62.392,200.676 62.261 C 199.526 60.876,194.305 59.966,190.556 60.498 M260.000 60.495 C 258.544 60.721,255.275 62.052,254.667 62.668 C 254.621 62.714,254.283 62.974,253.917 63.246 C 253.022 63.908,251.859 65.076,251.134 66.040 L 250.540 66.829 250.343 65.540 C 250.234 64.830,250.102 63.556,250.048 62.708 L 249.951 61.167 243.964 61.167 L 237.976 61.167 238.072 64.792 C 238.124 66.785,238.210 78.410,238.262 90.625 L 238.358 112.833 245.258 112.833 L 252.158 112.833 252.210 95.792 C 252.268 77.143,252.208 78.344,253.196 75.833 C 254.552 72.387,258.165 71.032,260.439 73.118 C 262.602 75.103,262.553 74.602,262.619 95.208 L 262.675 112.833 269.594 112.833 L 276.512 112.833 276.458 94.375 C 276.396 73.573,276.376 73.237,274.973 69.083 C 273.884 65.862,271.568 62.906,269.148 61.651 C 266.989 60.531,263.012 60.028,260.000 60.495 M299.494 60.493 C 298.895 60.569,298.117 60.752,297.766 60.899 C 297.414 61.046,297.019 61.167,296.887 61.167 C 296.509 61.167,293.586 62.527,293.333 62.821 C 293.287 62.874,292.819 63.199,292.292 63.544 C 291.765 63.888,291.333 64.244,291.333 64.335 C 291.333 64.426,291.250 64.500,291.147 64.500 C 290.738 64.500,288.579 66.951,287.476 68.667 C 286.930 69.516,285.698 71.966,285.129 73.333 C 282.943 78.589,282.241 89.484,283.679 95.833 C 283.856 96.612,284.000 97.400,284.000 97.583 C 284.000 97.767,284.160 98.404,284.355 99.000 C 285.486 102.453,286.632 104.845,288.149 106.917 C 289.970 109.405,294.621 112.819,296.212 112.835 C 296.324 112.837,296.904 112.999,297.500 113.197 C 299.166 113.750,305.227 113.757,306.868 113.208 C 307.483 113.002,308.062 112.833,308.155 112.833 C 308.521 112.833,311.491 111.321,312.225 110.761 C 312.653 110.434,313.048 110.167,313.102 110.167 C 313.474 110.167,316.854 106.443,317.474 105.349 C 317.597 105.132,317.848 104.683,318.031 104.352 C 318.215 104.021,318.433 103.679,318.516 103.592 C 318.599 103.505,318.668 103.317,318.670 103.175 C 318.672 103.033,318.821 102.729,319.000 102.500 C 319.179 102.271,319.330 101.971,319.335 101.833 C 319.340 101.696,319.490 101.283,319.667 100.917 C 319.844 100.550,319.991 100.145,319.994 100.017 C 319.997 99.889,320.142 99.364,320.316 98.850 C 322.849 91.370,322.126 77.461,318.874 71.083 C 318.734 70.808,318.542 70.433,318.448 70.250 C 316.946 67.319,315.248 65.221,313.083 63.621 C 312.625 63.282,312.175 62.944,312.083 62.869 C 311.616 62.486,308.841 61.167,308.504 61.167 C 308.404 61.167,307.857 61.010,307.287 60.818 C 306.115 60.423,301.531 60.232,299.494 60.493 M122.836 78.625 C 122.840 99.936,123.068 102.740,125.124 106.750 C 125.515 107.512,125.709 107.884,125.905 108.253 C 126.640 109.635,128.598 111.548,130.126 112.375 C 134.076 114.513,141.641 113.873,144.594 111.151 C 144.783 110.976,144.996 110.833,145.067 110.833 C 145.238 110.833,147.324 108.738,147.861 108.027 L 148.281 107.471 148.470 108.944 C 148.575 109.754,148.718 110.942,148.788 111.583 L 148.917 112.750 154.896 112.794 L 160.875 112.838 160.771 110.794 C 160.715 109.670,160.620 98.044,160.562 84.958 L 160.455 61.167 153.564 61.167 L 146.674 61.167 146.625 78.958 L 146.575 96.750 146.158 97.750 C 144.782 101.052,143.302 102.141,140.719 101.754 C 139.893 101.630,138.000 99.994,138.000 99.404 C 138.000 99.264,137.884 98.927,137.743 98.654 C 136.811 96.850,136.764 95.908,136.707 77.875 L 136.655 61.167 129.744 61.167 L 122.833 61.167 122.836 78.625 M55.037 70.896 C 57.474 71.993,58.555 74.637,59.083 80.792 L 59.201 82.167 53.243 82.167 L 47.284 82.167 47.388 80.940 C 48.007 73.623,51.348 69.235,55.037 70.896 M303.879 71.333 C 304.112 71.517,304.366 71.669,304.443 71.672 C 304.984 71.692,306.438 74.511,306.977 76.583 C 308.391 82.025,308.358 92.816,306.912 97.768 C 306.548 99.014,305.859 100.671,305.562 101.013 C 305.436 101.158,305.332 101.345,305.331 101.430 C 305.329 101.514,304.945 101.865,304.476 102.208 C 302.331 103.782,299.767 102.607,298.390 99.417 C 296.029 93.949,296.069 80.023,298.461 74.417 C 299.012 73.125,300.054 71.673,300.436 71.663 C 300.517 71.661,300.771 71.513,301.000 71.333 C 301.594 70.869,303.288 70.869,303.879 71.333 M97.354 72.279 C 98.667 72.541,100.179 74.622,100.844 77.083 C 101.332 78.890,101.333 95.671,100.845 97.377 C 98.909 104.146,93.425 103.791,91.150 96.750 C 89.646 92.098,89.648 82.318,91.154 77.583 C 92.477 73.422,94.483 71.706,97.354 72.279 M221.250 95.566 C 216.819 97.229,214.560 102.074,215.822 107.211 C 216.345 109.343,216.749 110.062,218.284 111.600 C 221.568 114.888,228.038 114.152,230.095 110.255 C 230.194 110.069,230.356 109.767,230.456 109.583 C 231.351 107.944,231.738 104.822,231.368 102.226 C 231.188 100.961,230.879 100.105,230.074 98.642 C 229.773 98.095,228.028 96.333,227.787 96.333 C 227.689 96.333,227.491 96.231,227.346 96.106 C 226.308 95.207,222.991 94.913,221.250 95.566 " stroke="none" fill="#343434" fill-rule="evenodd"></path><path id="path2" d="" stroke="none" fill="#90a43c" fill-rule="evenodd"></path><path id="path3" d="" stroke="none" fill="#64583c" fill-rule="evenodd"></path><path id="path4" d="" stroke="none" fill="#345c3c" fill-rule="evenodd"></path></g></svg>